<?xml version="1.0" encoding="UTF-8" standalone="no"?>
<!DOCTYPE svg PUBLIC "-//W3C//DTD SVG 1.1//EN" "http://www.w3.org/Graphics/SVG/1.1/DTD/svg11.dtd">
<svg width="100%" height="100%" viewBox="0 0 50000 50000" version="1.1" xmlns="http://www.w3.org/2000/svg" xmlns:xlink="http://www.w3.org/1999/xlink" xml:space="preserve" xmlns:serif="http://www.serif.com/" style="fill-rule:evenodd;clip-rule:evenodd;stroke-linecap:round;stroke-linejoin:round;stroke-miterlimit:1.5;">
    <g transform="matrix(1.122309,0,0,1.094307,-6115.463177,-4715.370642)">
        <ellipse cx="27724.5" cy="27154.5" rx="22275.5" ry="22845.5" style="fill:white;"/>
    </g>
    <path id="Frame" d="M25000,0C38797.9,0 50000,11202.1 50000,25000C50000,38797.9 38797.9,50000 25000,50000C11202.1,50000 0,38797.9 0,25000C0,11202.1 11202.1,0 25000,0ZM25000,161.6C38708.7,161.6 49838.4,11291.3 49838.4,25000C49838.4,38708.7 38708.7,49838.4 25000,49838.4C11291.3,49838.4 161.6,38708.7 161.6,25000C161.6,11291.3 11291.3,161.6 25000,161.6Z" style="fill:white;stroke:white;stroke-width:41.7px;"/>
    <g id="Rep">
        <ellipse id="ellipse1" cx="24999.1" cy="9286.79" rx="3102.06" ry="3097.37"/>
        <ellipse id="ellipse2" cx="24999.1" cy="17142.8" rx="3102.06" ry="3097.37"/>
        <path id="path2" d="M17255.1,17255.1L21127.56,21129.52C20100.52,22157.08 19523.53,23550.74 19523.53,25003.93C19523.53,28028.01 21977.46,30483.18 25000.01,30483.18C28022.56,30483.18 30476.49,28028.01 30476.49,25003.93C30476.49,23550.75 29899.507,22157.07 28872.46,21129.52L32744.92,17255.1C34799.01,19310.22 35952.97,22097.56 35952.97,25003.93C35952.97,31052.09 31045.11,35962.43 24999.97,35962.43C18954.86,35962.43 14046.97,31052.08 14046.97,25003.93C14046.97,22097.56 15200.94,19310.22 17255.02,17255.1L17255.1,17255.1Z"/>
        <rect id="rect2" x="14047" y="37493.2" width="6196.3" height="6317.39"/>
        <rect id="rect3" x="29756.7" y="37493.2" width="6196.3" height="6317.39"/>
    </g>
    <path id="path6" d="M23117.295,49692.272C14317.888,49016.925 6489.73,43645.052 2654.207,35650C845.909,31880.647 -9.744,27458.9 291.316,23439.318C355.607,22580.943 495.33,21377.193 601.812,20764.318C2382.422,10515.751 10515.751,2382.422 20764.318,601.812C28277.015,-703.461 36028.294,1556.445 41629.689,6685.167C45818.581,10520.58 48491.53,15422.326 49444.891,21016.958C50120.021,24978.835 49686.213,29600.036 48277.758,33450C45494.723,41057.337 38992.64,46975.885 31250,48949.589C28394.025,49677.616 25897.199,49905.627 23117.295,49692.272ZM20300,43900L20300,37400L14000,37400L14000,43900L20300,43900ZM36000,43900L36000,37400L29700,37400L29700,43900L36000,43900ZM27727.735,35664.934C30711.506,34887.352 33225.785,32907.935 34698.256,30177.249C36141.045,27501.608 36378.989,24294.072 35355.956,21311.304C34912.472,20018.274 34014.623,18521.382 33113.738,17573.083L32755.667,17196.167L30784.736,19165.25L28813.804,21134.334L29145.403,21521.733C30539.407,23150.313 30792.347,25594.482 29769.251,27550C29365.882,28320.988 28318.787,29366.745 27541.855,29774.551C25938.492,30616.143 24061.508,30616.143 22458.145,29774.551C21681.213,29366.745 20634.118,28320.988 20230.749,27550C19207.653,25594.482 19460.593,23150.313 20854.597,21521.733L21186.196,21134.334L17232.558,17184.402L16750.479,17717.201C14631.801,20058.789 13627.071,23545.782 14147.147,26752.265C14902.049,31406.538 18400.979,34946.305 23150,35860.192C24270.764,36075.869 26518.825,35979.98 27727.735,35664.934ZM26320.574,19976.335C26930.244,19697.219 27514.677,19146.852 27835.194,18550C28013.948,18217.134 28050,17982.165 28050,17150C28050,16299.118 28015.83,16086.006 27820.851,15720.851C26882.827,13964.125 24626.494,13467.469 23059.878,14672.882C22164.097,15362.13 21742.953,16479.798 21925.017,17684.678C22228.868,19695.537 24428.728,20842.45 26320.574,19976.335ZM26372.22,12116.652C27033.207,11775.56 27464.821,11339.162 27795.317,10677.78C28049.779,10168.556 28100,9950.003 28100,9351.842C28100,8324.219 27878.496,7763.796 27206.423,7091.012C26565.03,6448.942 25891.749,6166.976 25000,6166.976C24108.251,6166.976 23434.97,6448.942 22793.577,7091.012C22122.653,7762.645 21899.571,8325.422 21900.977,9342.814C21902.852,10700.472 22669.707,11775.13 23988.228,12267.855C24534.936,12472.158 25844.222,12389.117 26372.22,12116.652Z" style="fill:white;"/>
</svg>
