<?xml version="1.0" encoding="UTF-8" standalone="no"?>
<svg
   width="100%"
   height="100%"
   viewBox="0 0 50000 50000"
   version="1.1"
   xml:space="preserve"
   style="fill-rule:evenodd;clip-rule:evenodd;stroke-linecap:round;stroke-linejoin:round;stroke-miterlimit:1.5;"
   id="svg3"
   sodipodi:docname="pfpTemp(noBG).svg"
   inkscape:export-filename="pfpTemp().svg"
   inkscape:export-xdpi="96"
   inkscape:export-ydpi="96"
   inkscape:version="1.4.2 (ebf0e940, 2025-05-08)"
   xmlns:inkscape="http://www.inkscape.org/namespaces/inkscape"
   xmlns:sodipodi="http://sodipodi.sourceforge.net/DTD/sodipodi-0.dtd"
   xmlns="http://www.w3.org/2000/svg"
   xmlns:svg="http://www.w3.org/2000/svg"><defs
     id="defs3" /><sodipodi:namedview
     id="namedview3"
     pagecolor="#505050"
     bordercolor="#ffffff"
     borderopacity="1"
     inkscape:showpageshadow="0"
     inkscape:pageopacity="0"
     inkscape:pagecheckerboard="1"
     inkscape:deskcolor="#505050"
     inkscape:zoom="0.01"
     inkscape:cx="28650"
     inkscape:cy="14500"
     inkscape:window-width="1712"
     inkscape:window-height="1069"
     inkscape:window-x="0"
     inkscape:window-y="38"
     inkscape:window-maximized="0"
     inkscape:current-layer="svg3" /><rect
     id="Bg"
     x="-0"
     y="0"
     width="50000"
     height="50000"
     style="fill:#fff;stroke:#000;stroke-width:41.7px;opacity:0" /><g
     id="Rep"><ellipse
       cx="24999.1"
       cy="9286.79"
       rx="3102.06"
       ry="3097.37"
       id="ellipse1" /><ellipse
       cx="24999.1"
       cy="17142.8"
       rx="3102.06"
       ry="3097.37"
       id="ellipse2" /><path
       d="M17255.1,17255.1l3872.46,3874.42c-1027.04,1027.56 -1604.03,2421.22 -1604.03,3874.41c-0,3024.08 2453.93,5479.25 5476.48,5479.25c3022.55,0 5476.48,-2455.17 5476.48,-5479.25c0,-1453.18 -576.983,-2846.86 -1604.03,-3874.41l3872.46,-3874.42c2054.09,2055.12 3208.05,4842.46 3208.05,7748.83c0,6048.16 -4907.86,10958.5 -10953,10958.5c-6045.11,0 -10953,-4910.35 -10953,-10958.5c-0,-2906.37 1153.97,-5693.71 3208.05,-7748.83Z"
       id="path2" /><rect
       x="14047"
       y="37493.2"
       width="6196.3"
       height="6317.39"
       id="rect2" /><rect
       x="29756.7"
       y="37493.2"
       width="6196.3"
       height="6317.39"
       id="rect3" /></g></svg>
