<?xml version="1.0" encoding="UTF-8" standalone="no"?>
<svg
   width="100%"
   height="100%"
   viewBox="0 0 50000 50000"
   version="1.1"
   xml:space="preserve"
   style="fill-rule:evenodd;clip-rule:evenodd;stroke-linecap:round;stroke-linejoin:round;stroke-miterlimit:1.5;"
   id="svg3"
   sodipodi:docname="pfpTemp(framedBG).svg"
   inkscape:version="1.4.2 (ebf0e940, 2025-05-08)"
   xmlns:inkscape="http://www.inkscape.org/namespaces/inkscape"
   xmlns:sodipodi="http://sodipodi.sourceforge.net/DTD/sodipodi-0.dtd"
   xmlns="http://www.w3.org/2000/svg"
   xmlns:svg="http://www.w3.org/2000/svg"><defs
     id="defs3" /><sodipodi:namedview
     id="namedview3"
     pagecolor="#505050"
     bordercolor="#ffffff"
     borderopacity="1"
     inkscape:showpageshadow="0"
     inkscape:pageopacity="0"
     inkscape:pagecheckerboard="1"
     inkscape:deskcolor="#505050"
     inkscape:zoom="0.012047485"
     inkscape:cx="31417.346"
     inkscape:cy="33367.96"
     inkscape:window-width="1712"
     inkscape:window-height="1069"
     inkscape:window-x="0"
     inkscape:window-y="38"
     inkscape:window-maximized="0"
     inkscape:current-layer="svg3" /><rect
     id="Bg"
     x="-0"
     y="0"
     width="50000"
     height="50000"
     style="fill:#fff;stroke:#000;stroke-width:41.7px;opacity:0" /><path
     id="Frame"
     d="M25000,0c13797.9,0 25000,11202.1 25000,25000c0,13797.9 -11202.1,25000 -25000,25000c-13797.9,-0 -25000,-11202.1 -25000,-25000c-0,-13797.9 11202.1,-25000 25000,-25000Zm0,161.6c13708.7,0 24838.4,11129.7 24838.4,24838.4c0,13708.7 -11129.7,24838.4 -24838.4,24838.4c-13708.7,-0 -24838.4,-11129.7 -24838.4,-24838.4c-0,-13708.7 11129.7,-24838.4 24838.4,-24838.4Z"
     style="stroke:#000000;stroke-width:41.7px;stroke-opacity:1;fill:#000000;fill-opacity:1" /><g
     id="Rep"><ellipse
       cx="24999.1"
       cy="9286.79"
       rx="3102.06"
       ry="3097.37"
       id="ellipse1" /><ellipse
       cx="24999.1"
       cy="17142.8"
       rx="3102.06"
       ry="3097.37"
       id="ellipse2" /><path
       d="M17255.1,17255.1l3872.46,3874.42c-1027.04,1027.56 -1604.03,2421.22 -1604.03,3874.41c-0,3024.08 2453.93,5479.25 5476.48,5479.25c3022.55,0 5476.48,-2455.17 5476.48,-5479.25c0,-1453.18 -576.983,-2846.86 -1604.03,-3874.41l3872.46,-3874.42c2054.09,2055.12 3208.05,4842.46 3208.05,7748.83c0,6048.16 -4907.86,10958.5 -10953,10958.5c-6045.11,0 -10953,-4910.35 -10953,-10958.5c-0,-2906.37 1153.97,-5693.71 3208.05,-7748.83Z"
       id="path2" /><rect
       x="14047"
       y="37493.2"
       width="6196.3"
       height="6317.39"
       id="rect2" /><rect
       x="29756.7"
       y="37493.2"
       width="6196.3"
       height="6317.39"
       id="rect3" /></g><path
     style="fill:#ffffff;fill-opacity:1;stroke:#000000;stroke-width:100;stroke-opacity:1"
     d="M 23117.295,49692.272 C 14317.888,49016.925 6489.7305,43645.052 2654.2071,35650 845.90862,31880.647 -9.7444809,27458.9 291.31568,23439.318 c 64.2909,-858.375 204.01442,-2062.125 310.49671,-2675 C 2382.4223,10515.751 10515.751,2382.4223 20764.318,601.81239 28277.015,-703.46115 36028.294,1556.4446 41629.689,6685.1665 45818.581,10520.58 48491.53,15422.326 49444.891,21016.958 50120.021,24978.835 49686.213,29600.036 48277.758,33450 45494.723,41057.337 38992.64,46975.885 31250,48949.589 c -2855.975,728.027 -5352.801,956.038 -8132.705,742.683 z M 20300,40650 v -3250 h -3150 -3150 v 3250 3250 h 3150 3150 z m 15700,0 v -3250 h -3150 -3150 v 3250 3250 h 3150 3150 z m -8272.265,-4985.066 c 2983.771,-777.582 5498.05,-2756.999 6970.521,-5487.685 1442.789,-2675.641 1680.733,-5883.177 657.7,-8865.945 -443.484,-1293.03 -1341.333,-2789.922 -2242.218,-3738.221 l -358.071,-376.916 -1970.931,1969.083 -1970.932,1969.084 331.599,387.399 c 1394.004,1628.58 1646.944,4072.749 623.848,6028.267 -403.369,770.988 -1450.464,1816.745 -2227.396,2224.551 -1603.363,841.592 -3480.347,841.592 -5083.71,0 -776.932,-407.806 -1824.027,-1453.563 -2227.396,-2224.551 -1023.096,-1955.518 -770.156,-4399.687 623.848,-6028.267 l 331.599,-387.399 -1976.819,-1974.966 -1976.819,-1974.966 -482.079,532.799 c -2118.678,2341.588 -3123.408,5828.581 -2603.332,9035.064 754.902,4654.273 4253.832,8194.04 9002.853,9107.927 1120.764,215.677 3368.825,119.788 4577.735,-195.258 z M 26320.574,19976.335 c 609.67,-279.116 1194.103,-829.483 1514.62,-1426.335 178.754,-332.866 214.806,-567.835 214.806,-1400 0,-850.882 -34.17,-1063.994 -229.149,-1429.149 -938.024,-1756.726 -3194.357,-2253.382 -4760.973,-1047.969 -895.781,689.248 -1316.925,1806.916 -1134.861,3011.796 303.851,2010.859 2503.711,3157.772 4395.557,2291.657 z m 51.646,-7859.683 c 660.987,-341.092 1092.601,-777.49 1423.097,-1438.872 254.462,-509.224 304.683,-727.7773 304.683,-1325.9384 0,-1027.6225 -221.504,-1588.046 -893.577,-2260.8293 -641.393,-642.0704 -1314.674,-924.0364 -2206.423,-924.0364 -891.749,0 -1565.03,281.966 -2206.423,924.0364 -670.924,671.6328 -894.006,1234.4098 -892.6,2251.8016 1.875,1357.6581 768.73,2432.3161 2087.251,2925.0411 546.708,204.303 1855.994,121.262 2383.992,-151.203 z"
     id="path6" /></svg>
